<?xml version="1.0" encoding="utf-8"?>
<!-- Generator: Adobe Illustrator 25.0.1, SVG Export Plug-In . SVG Version: 6.00 Build 0)  -->
<svg version="1.1" id="레이어_1" xmlns="http://www.w3.org/2000/svg" xmlns:xlink="http://www.w3.org/1999/xlink" x="0px"
	 y="0px" viewBox="0 0 128 128" style="enable-background:new 0 0 128 128;" xml:space="preserve">
<style type="text/css">
	.st0{fill:#D6AE47;}
</style>
<g id="레이어_2_1_">
	<g>
		<path class="st0" d="M19,119L19,119c-5.53,0-10-4.34-10-9.71V18.7C9,13.34,13.47,9,19,9l0,0c5.54,0,10,4.34,10,9.7v90.58
			C29,114.66,24.53,119,19,119z"/>
		<path class="st0" d="M45.66,119L45.66,119c-5.54,0-10-4.34-10-9.7V18.7c0-5.36,4.47-9.7,10-9.7l0,0c5.54,0,10,4.34,10,9.7v90.58
			C55.67,114.66,51.2,119,45.66,119z"/>
		<path class="st0" d="M109,119L109,119c-5.54,0-10-4.34-10-9.7V18.7c0-5.37,4.47-9.7,10-9.7l0,0c5.53,0,10,4.34,10,9.7v90.58
			C119,114.66,114.53,119,109,119z"/>
		<path class="st0" d="M87.4,118.16L87.4,118.16c-5.43,0.94-10.64-2.59-11.6-7.86L59.6,21.1c-0.97-5.27,2.67-10.32,8.1-11.26l0,0
			c5.43-0.94,10.64,2.59,11.6,7.86l16.2,89.2C96.47,112.21,92.83,117.22,87.4,118.16z"/>
	</g>
</g>
</svg>
